HIERARCHY
ROOT Hips
{
	OFFSET 0.000000 0.000000 0.000000
	CHANNELS 6 Xposition Yposition Zposition Zrotation Yrotation Xrotation 
	JOINT LHipJoint
	{
		OFFSET 0.000000 0.000000 0.000000
		CHANNELS 3 Zrotation Yrotation Xrotation
		JOINT LeftUpLeg
		{
			OFFSET 1.363060 -1.794630 0.839290
			CHANNELS 3 Zrotation Yrotation Xrotation
			JOINT LeftLeg
			{
				OFFSET 2.448110 -6.726130 0.000000
				CHANNELS 3 Zrotation Yrotation Xrotation
				JOINT LeftFoot
				{
					OFFSET 2.562200 -7.039590 0.000000
					CHANNELS 3 Zrotation Yrotation Xrotation
					JOINT LeftToeBase
					{
						OFFSET 0.157640 -0.433110 2.322550
						CHANNELS 3 Zrotation Yrotation Xrotation
						End Site
						{
							OFFSET 0.000000 0.000000 0.000000
						}
					}
				}
			}
		}
	}
	JOINT RHipJoint
	{
		OFFSET 0.000000 0.000000 0.000000
		CHANNELS 3 Zrotation Yrotation Xrotation
		JOINT RightUpLeg
		{
			OFFSET -1.305520 -1.794630 0.839290
			CHANNELS 3 Zrotation Yrotation Xrotation
			JOINT RightLeg
			{
				OFFSET -2.542530 -6.985550 0.000000
				CHANNELS 3 Zrotation Yrotation Xrotation
				JOINT RightFoot
				{
					OFFSET -2.568260 -7.056230 0.000000
					CHANNELS 3 Zrotation Yrotation Xrotation
					JOINT RightToeBase
					{
						OFFSET -0.164730 -0.452590 2.363150
						CHANNELS 3 Zrotation Yrotation Xrotation
						End Site
						{
							OFFSET 0.000000 0.000000 0.000000
						}
					}
				}
			}
		}
	}
	JOINT LowerBack
	{
		OFFSET 0.000000 0.000000 0.000000
		CHANNELS 3 Zrotation Yrotation Xrotation
		JOINT Spine
		{
			OFFSET 0.028270 2.035590 -0.193380
			CHANNELS 3 Zrotation Yrotation Xrotation
			JOINT Spine1
			{
				OFFSET 0.056720 2.048850 -0.042750
				CHANNELS 3 Zrotation Yrotation Xrotation
				JOINT Neck
				{
					OFFSET 0.000000 0.000000 0.000000
					CHANNELS 3 Zrotation Yrotation Xrotation
					JOINT Neck1
					{
						OFFSET -0.054170 1.746240 0.172020
						CHANNELS 3 Zrotation Yrotation Xrotation
						JOINT Head
						{
							OFFSET 0.104070 1.761360 -0.123970
							CHANNELS 3 Zrotation Yrotation Xrotation
							End Site
							{
								OFFSET 0.000000 0.000000 0.000000
							}
						}
					}
				}
				JOINT LeftShoulder
				{
					OFFSET 0.000000 0.000000 0.000000
					CHANNELS 3 Zrotation Yrotation Xrotation
					JOINT LeftArm
					{
						OFFSET 3.362410 1.200890 -0.311210
						CHANNELS 3 Zrotation Yrotation Xrotation
						JOINT LeftForeArm
						{
							OFFSET 4.983000 -0.000000 -0.000000
							CHANNELS 3 Zrotation Yrotation Xrotation
							JOINT LeftHand
							{
								OFFSET 3.483560 -0.000000 -0.000000
								CHANNELS 3 Zrotation Yrotation Xrotation
								JOINT LeftFingerBase
								{
									OFFSET 0.000000 0.000000 0.000000
									CHANNELS 3 Zrotation Yrotation Xrotation
									JOINT LeftHandIndex1
									{
										OFFSET 0.715260 -0.000000 -0.000000
										CHANNELS 3 Zrotation Yrotation Xrotation
										End Site
										{
											OFFSET 0.000000 0.000000 0.000000
										}
									}
								}
								JOINT LThumb
								{
									OFFSET 0.000000 0.000000 0.000000
									CHANNELS 3 Zrotation Yrotation Xrotation
									End Site
									{
										OFFSET 0.000000 0.000000 0.000000
									}
								}
							}
						}
					}
				}
				JOINT RightShoulder
				{
					OFFSET 0.000000 0.000000 0.000000
					CHANNELS 3 Zrotation Yrotation Xrotation
					JOINT RightArm
					{
						OFFSET -3.136600 1.374050 -0.404650
						CHANNELS 3 Zrotation Yrotation Xrotation
						JOINT RightForeArm
						{
							OFFSET -5.241900 -0.000000 -0.000000
							CHANNELS 3 Zrotation Yrotation Xrotation
							JOINT RightHand
							{
								OFFSET -3.444170 -0.000000 -0.000000
								CHANNELS 3 Zrotation Yrotation Xrotation
								JOINT RightFingerBase
								{
									OFFSET 0.000000 0.000000 0.000000
									CHANNELS 3 Zrotation Yrotation Xrotation
									JOINT RightHandIndex1
									{
										OFFSET -0.622530 -0.000000 -0.000000
										CHANNELS 3 Zrotation Yrotation Xrotation
										End Site
										{
											OFFSET 0.000000 0.000000 0.000000
										}
									}
								}
								JOINT RThumb
								{
									OFFSET 0.000000 0.000000 0.000000
									CHANNELS 3 Zrotation Yrotation Xrotation
									End Site
									{
										OFFSET 0.000000 0.000000 0.000000
									}
								}
							}
						}
					}
				}
			}
		}
	}
}
MOTION
Frames: 4
Frame Time: 0.008333
4.144760 17.390646 1.010956 26.141501 -88.619973 -16.854047 -10.678479 2.677392 2.404947 -6.807229 9.028801 -10.645493 -2.189667 -1.292264 -3.695122 0.615400 7.632587 3.481658 1.913200 0.000001 -38.900800 10.226250 -2.147820 1.865423 1.698560 -6.539806 -7.944471 2.134668 1.017646 -0.480381 -0.280938 -2.819857 4.444160 -1.168000 0.000000 -65.689300 -3.985071 -0.010473 -5.522921 -1.589234 0.200440 -4.919075 -6.465531 0.260019 -6.030766 8.391306 -1.084171 4.779857 -2.898682 -0.365630 3.410685 0.000000 0.000000 0.000000 10.498993 3.206037 -4.403867 -82.669693 -45.795768 12.700348 177.496597 -63.321190 179.809404 11.631833 -1.061097 -0.205131 -0.023189 0.957194 -0.000000 0.000000 0.000000 0.000000 0.000000 0.000000 0.000000 2.361662 1.073074 -6.159797 92.773263 45.830626 18.598775 -175.995767 62.150732 179.660593 -18.931777 16.172541 -2.940126 0.105854 -1.199172 -0.000000 0.000000 0.000000 0.000000 0.000000 0.000000 0.000000 
4.132892 17.392032 0.990419 22.549441 -88.106768 -13.097962 -10.730854 2.646757 2.468970 -6.795611 8.844516 -10.828546 -2.204169 -1.310121 -3.790562 0.597611 7.421542 3.676761 1.883701 -0.000000 -39.158600 10.160277 -2.175882 1.903011 1.778041 -6.447352 -8.248156 2.108335 0.991388 0.004563 -0.359674 -3.205611 4.085183 -1.231700 0.000000 -64.922600 -4.209920 -0.050157 -5.607474 -1.617222 0.182684 -4.917063 -6.433960 0.239190 -5.965404 8.356251 -1.212492 4.631648 -2.873320 -0.362342 3.368650 0.000000 0.000000 0.000000 10.200839 3.281745 -4.297625 -82.430671 -45.031940 12.470120 177.565368 -63.189857 179.809691 11.661594 -1.058467 -0.205197 -0.031242 0.954453 -0.000000 0.000000 0.000000 0.000000 0.000000 0.000000 0.000000 2.079407 0.967989 -6.157977 92.798929 45.712882 18.514241 -175.986114 61.999964 179.659404 -19.033124 16.160656 -2.955149 0.111128 -1.201878 -0.000000 0.000000 0.000000 0.000000 0.000000 0.000000 0.000000 
4.120487 17.393600 0.968674 20.445290 -87.687851 -10.808941 -10.757010 2.626401 2.530498 -6.778777 8.704957 -11.009576 -2.221238 -1.331187 -3.937901 0.589255 7.229654 3.892698 1.853200 0.000000 -39.409400 10.120075 -2.193207 1.955192 1.866616 -6.294617 -8.637852 2.080793 0.959601 0.580606 -0.435324 -3.558460 3.716013 -1.283800 0.000000 -64.200899 -4.414331 -0.075735 -5.706981 -1.642598 0.175651 -4.917847 -6.405636 0.229694 -5.898115 8.313933 -1.348405 4.465589 -2.847427 -0.358746 3.321593 0.000000 0.000000 0.000000 9.874898 3.357566 -4.170709 -82.099005 -44.177246 12.163865 177.645680 -63.060119 179.810237 11.684391 -1.051457 -0.204654 -0.039970 0.951093 -0.000000 0.000000 0.000000 0.000000 0.000000 0.000000 0.000000 1.777699 0.869599 -6.156308 92.856729 45.580074 18.446173 -175.977920 61.840918 179.658158 -19.134721 16.155835 -2.971560 0.116719 -1.205144 -0.000000 0.000000 0.000000 0.000000 0.000000 0.000000 0.000000 
4.106944 17.395376 0.945609 19.340030 -87.378324 -9.476839 -10.768180 2.615696 2.599093 -6.766407 8.594066 -11.205171 -2.239777 -1.358637 -4.156346 0.595374 7.086048 4.132634 1.827000 -0.000000 -39.627300 10.093233 -2.203157 2.034601 1.958908 -6.051930 -9.140969 2.052077 0.925028 1.238150 -0.508806 -3.887693 3.341977 -1.327699 0.000000 -63.540000 -4.614299 -0.085763 -5.847159 -1.668636 0.181683 -4.925657 -6.380742 0.233075 -5.826182 8.264098 -1.500738 4.276832 -2.822992 -0.354908 3.268318 0.000000 0.000000 0.000000 9.529628 3.429829 -4.023543 -81.673006 -43.210570 11.769523 177.738554 -62.924165 179.811293 11.684658 -1.042540 -0.203404 -0.048941 0.947142 -0.000000 0.000000 0.000000 0.000000 0.000000 0.000000 0.000000 1.463788 0.770504 -6.154162 92.955602 45.434405 18.409635 -175.973872 61.677495 179.656946 -19.236193 16.155261 -2.988856 0.122826 -1.208896 -0.000000 0.000000 0.000000 0.000000 0.000000 0.000000 0.000000 
